<svg xmlns="http://www.w3.org/2000/svg" width="250" height="250" viewBox="0 0 250 250">
  <g fill="none" fill-rule="evenodd" opacity=".9" transform="translate(22)">
    <g stroke="#FFCC0A" stroke-linejoin="round" stroke-width="2" transform="translate(151)">
      <circle cx="28" cy="27" r="10" fill="#FFF" fill-rule="nonzero" stroke-linecap="square"/>
      <path stroke-linecap="round" d="M28.5,0 L28.5,7 M47,8 L42,13 M55,27.5 L48,27.5 M47,46 L42,41 M28.5,54 L28.5,47 M9,46 L14,41 M1,27.5 L8,27.5 M9,8 L14,13"/>
    </g>
    <g stroke="#000" stroke-width="2" opacity=".2" transform="translate(0 52)">
      <path d="M138 98L138 201 158 201 158 113.57561C158 104.973438 151.060414 98 142.5 98L138 98zM20.1000848 201L138 201 138 15.4845924C138 6.93268818 131.054528-2.84217094e-14 122.486853-2.84217094e-14L35.5131467-2.84217094e-14C26.9454724-2.84217094e-14 20 6.93268818 20 15.4845924L20 201 20.1000848 201z"/>
      <path d="M44 201L114 201 114 178.715789C114 176.934651 113.302652 175.226464 112.061366 173.967009 110.820079 172.707554 109.136533 172 107.381089 172L50.7191977 172C48.9637533 172 47.2802074 172.707554 46.0389207 173.967009 44.7976341 175.226464 44.1002865 176.934651 44.1002865 178.715789L44.1002865 201 44 201zM20 98L20 201 0 201 0 113.57561C0 104.973438 6.93958638 98 15.5 98L20 98zM49 112L49 112C50.3260824 112 51.597852 112.519495 52.5355339 113.444203 53.4732158 114.368911 54 115.623083 54 116.930818L54 123.069182C54 124.376917 53.4732158 125.631089 52.5355339 126.555797 51.597852 127.480505 50.3260824 128 49 128L49 128C47.6739176 128 46.402148 127.480505 45.4644661 126.555797 44.5267842 125.631089 44 124.376917 44 123.069182L44 116.930818C44 115.623083 44.5267842 114.368911 45.4644661 113.444203 46.402148 112.519495 47.6739176 112 49 112L49 112zM49 139L49 139C50.3260824 139 51.597852 139.519495 52.5355339 140.444203 53.4732158 141.368911 54 142.623083 54 143.930818L54 150.069182C54 151.376917 53.4732158 152.631089 52.5355339 153.555797 51.597852 154.480505 50.3260824 155 49 155L49 155C47.6739176 155 46.402148 154.480505 45.4644661 153.555797 44.5267842 152.631089 44 151.376917 44 150.069182L44 143.930818C44 142.623083 44.5267842 141.368911 45.4644661 140.444203 46.402148 139.519495 47.6739176 139 49 139L49 139zM69 112L69 112C71.7614237 112 74 114.207602 74 116.930818L74 123.069182C74 125.792398 71.7614237 128 69 128L69 128C66.2385763 128 64 125.792398 64 123.069182L64 116.930818C64 114.207602 66.2385763 112 69 112zM69 139L69 139C71.7614237 139 74 141.207602 74 143.930818L74 150.069182C74 152.792398 71.7614237 155 69 155L69 155C66.2385763 155 64 152.792398 64 150.069182L64 143.930818C64 141.207602 66.2385763 139 69 139zM90 112L90 112C92.7614237 112 95 114.207602 95 116.930818L95 123.069182C95 124.376917 94.4732158 125.631089 93.5355339 126.555797 92.597852 127.480505 91.3260824 128 90 128L90 128C87.2385763 128 85 125.792398 85 123.069182L85 116.930818C85 114.207602 87.2385763 112 90 112L90 112zM90 139L90 139C92.7614237 139 95 141.207602 95 143.930818L95 150.069182C95 151.376917 94.4732158 152.631089 93.5355339 153.555797 92.597852 154.480505 91.3260824 155 90 155L90 155C87.2385763 155 85 152.792398 85 150.069182L85 143.930818C85 141.207602 87.2385763 139 90 139L90 139zM109 112L109 112C111.761424 112 114 114.207602 114 116.930818L114 123.069182C114 125.792398 111.761424 128 109 128L109 128C106.238576 128 104 125.792398 104 123.069182L104 116.930818C104 114.207602 106.238576 112 109 112zM109 139L109 139C111.761424 139 114 141.207602 114 143.930818L114 150.069182C114 152.792398 111.761424 155 109 155L109 155C106.238576 155 104 152.792398 104 150.069182L104 143.930818C104 141.207602 106.238576 139 109 139z"/>
      <line x1="78.5" x2="78.5" y1="173" y2="202" stroke-linecap="square" stroke-linejoin="round"/>
      <circle cx="83" cy="192" r="1" stroke-linecap="square" stroke-linejoin="round"/>
    </g>
    <g fill-rule="nonzero" transform="translate(45 44)">
      <path fill="#FFF" stroke="#FFCC0A" stroke-width="2" d="M16.6237482,0 L53.3762518,0 C57.7851439,0 62.0134593,1.75057504 65.1310169,4.86661858 C68.2485744,7.98266213 70,12.2089241 70,16.6156752 L70,89.3843248 C70,93.7910759 68.2485744,98.0173379 65.1310169,101.133381 C62.0134593,104.249425 57.7851439,106 53.3762518,106 L16.6237482,106 C7.44270559,106 -1.13686838e-13,98.5609088 -1.13686838e-13,89.3843248 L-1.13686838e-13,16.6156752 C0.0546778689,7.46182405 7.46544952,0.0546513155 16.6237482,0 Z"/>
      <path fill="#FFCC0A" d="M24.01062,1.01727 C22.8981,0.28956 21.53285,0.20828 20.15363,0.77343 C17.56156,1.54051 4.79425,5.33146 3.38455,6.19633 C1.72593,7.21995 0.95504,8.59282 0.95504,10.52068 L0.95504,39.8399 C0.95504,41.90619 2.63017,43.59656 4.28371,44.20362 C5.66801,44.70781 19.63547,48.74514 20.22856,48.91532 L20.18538,48.90262 C21.47443,49.33061 22.72157,49.149 23.79218,48.37684 C25.4254,47.19828 26.16962,44.98848 26.16962,43.43146 L26.16962,5.7658 C26.16962,3.64617 25.38349,1.91389 24.01062,1.01727 Z M23.87219,43.42892 C23.87219,44.43984 23.34006,45.86859 22.44852,46.51121 C21.98116,46.84776 21.49348,46.91253 20.91055,46.71949 L20.86737,46.70552 C16.84401,45.54347 6.16204,42.43832 5.07492,42.04081 C4.82981,41.95191 4.58597,41.81729 4.35737,41.65092 C4.06654,41.32707 4.30149,40.97909 4.58851,40.97909 L16.75511,40.97909 C17.67586,40.97909 18.88236,40.51554 18.88236,39.02964 L18.88236,10.93724 C18.88236,9.45388 17.67586,8.99033 16.75511,8.99033 L4.58851,8.99033 C4.29133,8.99033 4.05003,8.61441 4.40182,8.2804 C4.46405,8.23849 4.5212,8.19531 4.59105,8.15213 C5.461,7.64413 13.60297,5.10286 20.82419,2.97053 L20.89404,2.95021 L20.96008,2.92227 C21.66493,2.6162 22.26945,2.61874 22.75586,2.93878 C23.4569,3.39852 23.876,4.45516 23.876,5.7658 L23.876,43.42892 L23.87219,43.42892 Z M14.77645,25.52065 C14.77645,24.79548 15.37081,24.20112 16.09344,24.20112 C16.81861,24.20112 17.4117,24.79421 17.4117,25.52065 C17.4117,26.24709 16.81861,26.8351 16.09344,26.8351 C15.37081,26.8351 14.77645,26.24836 14.77645,25.52065 Z" transform="translate(21 28)"/>
    </g>
  </g>
</svg>
