<svg xmlns="http://www.w3.org/2000/svg" width="250" height="250" viewBox="0 0 250 250">
  <g fill="none" fill-rule="evenodd" stroke-linecap="round" stroke-linejoin="round" transform="translate(11 2)">
    <line x1="220" x2="202" y1="249" y2="156" stroke="#CCC" stroke-width="2"/>
    <line x1="23" x2="41" y1="249" y2="156" stroke="#CCC" stroke-width="2"/>
    <polygon fill="#FFF" fill-rule="nonzero" stroke="#FFCC0A" stroke-width="2" points="12.216 31.334 40.816 31.334 40.816 80.534 12.216 80.534" transform="rotate(-81.1 26.516 55.934)"/>
    <rect width="49" height="29" x="27" y="26" fill="#FFF" fill-rule="nonzero" stroke="#FFCC0A" stroke-width="2"/>
    <circle cx="189.5" cy="23.5" r="23.5" fill="#FFF" fill-rule="nonzero" stroke="#CCC" stroke-width="2"/>
    <g stroke="#CCC" stroke-width="2" transform="translate(91 64)">
      <path fill="#FFF" fill-rule="nonzero" d="M58.971961,82 L36.8873754,82 C36.2804491,81.9990872 35.7108672,81.6981093 35.3562369,81.1909171 C35.0016066,80.683725 34.9050716,80.0320228 35.0967334,79.4390244 L40.6676198,61 L55.3906769,61 L60.9615633,79.4390244 C61.0786352,80.0589026 60.9252962,80.7004432 60.5422009,81.1935557 C60.1591056,81.6866682 59.5849508,81.9815428 58.971961,82 L58.971961,82 Z"/>
      <path fill="#FFF" fill-rule="nonzero" d="M94.9986102,3.83077683 L94.9986102,61.1706252 C94.9986102,63.2855305 93.2991061,65 91.2026615,65 L3.79594867,65 C1.69950411,65 -5.68378677e-13,63.2855305 -5.68378677e-13,61.1706252 L-5.68378677e-13,3.83077683 C-5.68378677e-13,1.71587154 1.69950411,0.00140206399 3.79594867,0.00140206399 L91.2026615,0.00140206399 C92.2176841,-0.0266676049 93.1994496,0.367762599 93.9174486,1.09208406 C94.6354476,1.81640553 95.0264348,2.80681625 94.9986102,3.83077683 L94.9986102,3.83077683 Z"/>
      <line x1="95" y1="51.5" y2="51.5"/>
    </g>
    <polyline fill="#FFF" fill-rule="nonzero" stroke="#FFCC0A" stroke-width="2" points="189 9 189 24.377 199 34"/>
    <polygon fill="#FFF" fill-rule="nonzero" stroke="#CCC" stroke-width="2" points="219.312 143 9.893 143 5 159 210.124 159 228 159"/>
    <rect width="9" height="48" x="97" y="204" fill="#FFF" fill-rule="nonzero" stroke="#CCC" stroke-width="2"/>
    <rect width="12" height="10" x="95" y="204" fill="#FFF" fill-rule="nonzero" stroke="#CCC" stroke-width="2"/>
    <path fill="#FFF" fill-rule="nonzero" stroke="#CCC" stroke-width="2" d="M139,199.589744 C139,204.205128 123.055085,208 103.5,208 C83.9449153,208 68,204.205128 68,199.589744 C68,194.974359 86.3516949,188 106.007062,188 C125.662429,188 139,194.871795 139,199.589744 Z"/>
    <path fill="#FFF" fill-rule="nonzero" stroke="#FFCC0A" stroke-width="2" d="M124.966102,182 L78.0338983,182 C71.3877598,182 66,176.618448 66,169.979967 L66,134.020033 C66,127.381552 71.3877598,122 78.0338983,122 L124.966102,122 C131.61224,122 137,127.381552 137,134.020033 L137,169.979967 C137,176.618448 131.61224,182 124.966102,182 L124.966102,182 Z"/>
    <path fill="#FFF" fill-rule="nonzero" stroke="#CCC" stroke-width="2" d="M103.906615,171 L94.0933852,171 C89.623532,171 86,167.326439 86,162.794872 L86,159.205128 C86,154.673561 89.623532,151 94.0933852,151 L103.906615,151 C108.376468,151 112,154.673561 112,159.205128 L112,162.794872 C112,167.326439 108.376468,171 103.906615,171 Z"/>
    <path stroke="#CCC" stroke-width="2" d="M98.1461129,162 C98.1461129,162 90.9148118,205.80531 103,207"/>
  </g>
</svg>
