<svg xmlns="http://www.w3.org/2000/svg" width="250" height="250" viewBox="0 0 250 250">
  <g fill="none" fill-rule="evenodd" stroke-linejoin="round" transform="translate(18 3)">
    <g fill="#FFF" stroke-linecap="round" stroke-width="2" transform="translate(81 81)">
      <path stroke="#CCC" d="M14,97 L14,22.0910973 C14,9.94099379 23.4910462,-5.68434189e-14 35.1800189,-5.68434189e-14 L98.8199811,-5.68434189e-14 C110.508954,-5.68434189e-14 120,9.84057971 120,22.0910973 L120,97"/>
      <path stroke="#CCC" d="M133 99.5283019L133 58.4716981C133 52.1360542 127.954266 47 121.730038 47L118.269962 47C112.045734 47 107 52.1360542 107 58.4716981L107 99.5283019C107 105.863946 112.045734 111 118.269962 111L121.730038 111C127.931887 110.94534 132.946301 105.841166 133 99.5283019L133 99.5283019zM0 99.5283019L0 58.4716981C0 52.1360542 5.04573385 47 11.269962 47L14.730038 47C20.9542662 47 26 52.1360542 26 58.4716981L26 99.5283019C26 105.863946 20.9542662 111 14.730038 111L11.269962 111C5.04573385 111 0 105.863946 0 99.5283019z"/>
      <path stroke="#CCC" d="M22.9298086,95 L111.070191,95 C117.106558,95 122,99.8244297 122,105.775665 L122,110.224335 C122,116.17557 117.106558,121 111.070191,121 L22.9298086,121 C20.0310431,121 17.2510035,119.86471 15.2012668,117.843881 C13.1515301,115.823051 12,113.082219 12,110.224335 L12,105.775665 C12,102.917781 13.1515301,100.176949 15.2012668,98.1561193 C17.2510035,96.1352901 20.0310431,95 22.9298086,95 Z"/>
      <polygon stroke="#CCC" points="96 121 111 121 108.941 169 98.157 169"/>
      <polygon stroke="#CCC" points="23 121 38 121 35.857 169 25.143 169"/>
      <circle cx="51.5" cy="37.5" r="4.5" fill-rule="nonzero" stroke="#FFCC09"/>
      <circle cx="82.5" cy="37.5" r="4.5" fill-rule="nonzero" stroke="#FFCC09"/>
      <circle cx="51.5" cy="68.5" r="4.5" fill-rule="nonzero" stroke="#FFCC09"/>
      <circle cx="82.5" cy="68.5" r="4.5" fill-rule="nonzero" stroke="#FFCC09"/>
    </g>
    <polygon stroke="#CCC" stroke-linecap="square" stroke-width="2" points="21 204 67 204 59.923 250 28.077 250"/>
    <line x1="43.7" x2="43.3" y1="178" y2="202" stroke="#000" stroke-linecap="square" stroke-width="2" opacity=".2"/>
    <path fill="#FFF" stroke="#FFCC09" stroke-linecap="round" stroke-width="2" d="M40,173 L40,164.639344 C40,162.62939 41.5670034,161 43.5,161 C45.4329966,161 47,162.62939 47,164.639344 L47,173 L47,173"/>
    <path fill="#FFF" stroke="#FFCC09" stroke-linecap="round" stroke-width="2" d="M45,172.210843 L51.3429133,166.726378 C52.8633534,165.549468 54.988593,165.830639 56.1875799,167.367332 C57.3865668,168.904025 57.2427935,171.162419 55.8598363,172.515535 L49.5169231,178 L49.5169231,178"/>
    <path fill="#FFF" stroke="#FFCC09" stroke-linecap="round" stroke-width="2" d="M49.6635502 175L57.7855892 176.898014C59.41789 177.600621 60.3125037 179.405749 59.9000079 181.164432 59.4875122 182.923115 57.8890481 184.118867 56.122039 183.990591L48 182.092577 48 182.092577M45 183.095031L41.2707526 190.54245C40.8161631 191.864755 39.6035779 192.813977 38.1623923 192.975701 36.7212068 193.137426 35.3131125 192.482287 34.5528608 191.296308 33.7926091 190.110328 33.8182471 188.60886 34.6185817 187.447419L38.347829 180 38.347829 180"/>
    <path fill="#FFF" stroke="#FFCC09" stroke-linecap="round" stroke-width="2" d="M49.652171 180L53.3814183 187.447419C54.1817529 188.60886 54.2073909 190.110328 53.4471392 191.296308 52.6868875 192.482287 51.2787932 193.137426 49.8376077 192.975701 48.3964221 192.813977 47.1838369 191.864755 46.7292474 190.54245L43 183.095031 43 183.095031M40 182.092577L31.877961 183.990591C30.1109519 184.118867 28.5124878 182.923115 28.0999921 181.164432 27.6874963 179.405749 28.58211 177.600621 30.2144108 176.898014L38.3364498 175 38.3364498 175"/>
    <path fill="#FFF" stroke="#FFCC09" stroke-linecap="round" stroke-width="2" d="M37.4830769,178 L31.1401637,172.515535 C29.7572065,171.162419 29.6134332,168.904025 30.8124201,167.367332 C32.011407,165.830639 34.1366466,165.549468 35.6570867,166.726378 L42,172.210843 L42,172.210843"/>
    <circle cx="44" cy="178" r="6" fill="#FFF" fill-rule="nonzero" stroke="#CCC" stroke-linecap="square" stroke-width="2"/>
    <path fill="#FFF" fill-rule="nonzero" stroke="#CCC" stroke-linecap="round" stroke-width="2" d="M47 2.47584541L47 38.5241546C47 39.8915263 45.8421157 41 44.4137931 41L40.5862069 41C39.1578843 41 38 39.8915263 38 38.5241546L38 2.47584541C38 1.10847375 39.1578843-4.26325641e-14 40.5862069-4.26325641e-14L44.4137931-4.26325641e-14C45.8421157-4.26325641e-14 47 1.10847375 47 2.47584541zM36.8360225 5.87228848L23.1611901 39.4120173C22.9208861 40.0384712 22.4403255 40.5399615 21.8288362 40.8023987 21.2173468 41.0648359 20.5269268 41.0659037 19.9146471 40.8053592L16.5697241 39.4120173C15.9504731 39.1689182 15.454749 38.6827678 15.1953293 38.0641658 14.9359096 37.4455638 14.9348541 36.7471131 15.1924029 36.1277115L28.8672352 2.58798269C29.1075393 1.96152876 29.5880998 1.46003851 30.1995892 1.1976013 30.8110785.935164085 31.5014985.934096291 32.1137782 1.19464084L35.4587012 2.58798269C36.7096761 3.13645207 37.3155258 4.58113749 36.8360225 5.87228848L36.8360225 5.87228848zM56 2.47584541L56 38.5241546C56 39.8915263 54.8421157 41 53.4137931 41L49.5862069 41C48.1578843 41 47 39.8915263 47 38.5241546L47 2.47584541C47 1.10847375 48.1578843-4.26325641e-14 49.5862069-4.26325641e-14L53.4137931-4.26325641e-14C54.8421157-4.26325641e-14 56 1.10847375 56 2.47584541L56 2.47584541zM65 2.47584541L65 38.5241546C65 39.8915263 63.8421157 41 62.4137931 41L58.5862069 41C57.1578843 41 56 39.8915263 56 38.5241546L56 2.47584541C56 1.10847375 57.1578843-4.26325641e-14 58.5862069-4.26325641e-14L62.4137931-4.26325641e-14C63.8421157-4.26325641e-14 65 1.10847375 65 2.47584541L65 2.47584541z"/>
    <path fill="#FFF" fill-rule="nonzero" stroke="#CCC" stroke-linecap="round" stroke-width="2" d="M73,2.47584541 L73,38.5241546 C73,39.8915263 71.8421157,41 70.4137931,41 L66.5862069,41 C65.1578843,41 64,39.8915263 64,38.5241546 L64,2.47584541 C64,1.10847375 65.1578843,-4.26325641e-14 66.5862069,-4.26325641e-14 L70.4137931,-4.26325641e-14 C71.8421157,-4.26325641e-14 73,1.10847375 73,2.47584541 L73,2.47584541 Z"/>
    <line x1="87" y1="41.5" y2="41.5" stroke="#CCC" stroke-linecap="round" stroke-width="2"/>
  </g>
</svg>
